<svg width="19" height="28" viewBox="0 0 19 28" fill="none" xmlns="http://www.w3.org/2000/svg">
<path d="M1.49802 16.3334H6.49987L5.46724 26.3912C5.46268 26.4215 5.46143 26.5113 5.46143 26.5416C5.46143 27.3455 6.09677 28 6.87706 28C7.32101 28 7.74443 27.7806 8.0254 27.3922L17.9184 12.8334C18.1006 12.5824 18.2014 12.2722 18.2014 11.9584C18.2014 11.1545 17.5663 10.5 16.786 10.5H10.664L11.6832 1.62973C11.6865 1.59598 11.6888 1.49216 11.6888 1.4584C11.69 0.654541 11.0547 0 10.2744 0C9.83043 0 9.40701 0.219391 9.11713 0.619507L0.365439 14C0.183173 14.2508 0.0823975 14.5612 0.0823975 14.875C0.0823975 15.6789 0.717738 16.3334 1.49802 16.3334Z" fill="#DB1951"/>
</svg>
