<svg width="16" height="16" viewBox="0 0 16 16" fill="none" xmlns="http://www.w3.org/2000/svg">
<path fill-rule="evenodd" clip-rule="evenodd" d="M4.23423 5.83442C4.38425 5.68444 4.5877 5.60019 4.79983 5.60019C5.01196 5.60019 5.21541 5.68444 5.36543 5.83442L7.99983 8.46882L10.6342 5.83442C10.708 5.75801 10.7963 5.69706 10.8939 5.65514C10.9915 5.61321 11.0965 5.59114 11.2027 5.59022C11.3089 5.58929 11.4143 5.60954 11.5126 5.64976C11.6109 5.68998 11.7002 5.74939 11.7753 5.8245C11.8505 5.89962 11.9099 5.98894 11.9501 6.08725C11.9903 6.18557 12.0106 6.29092 12.0096 6.39714C12.0087 6.50336 11.9866 6.60834 11.9447 6.70594C11.9028 6.80354 11.8418 6.89182 11.7654 6.96562L8.56543 10.1656C8.41541 10.3156 8.21196 10.3998 7.99983 10.3998C7.7877 10.3998 7.58425 10.3156 7.43423 10.1656L4.23423 6.96562C4.08425 6.8156 4 6.61215 4 6.40002C4 6.18789 4.08425 5.98444 4.23423 5.83442Z" fill="white"/>
</svg>
