<svg width="20" height="20" viewBox="0 0 20 20" fill="none" xmlns="http://www.w3.org/2000/svg">
<path fill-rule="evenodd" clip-rule="evenodd" d="M7.40131 14.5187C7.22134 14.3387 7.12024 14.0946 7.12024 13.84C7.12024 13.5854 7.22134 13.3413 7.40131 13.1613L10.5626 10L7.40131 6.83872C7.22644 6.65766 7.12968 6.41516 7.13187 6.16345C7.13405 5.91174 7.23502 5.67096 7.41301 5.49297C7.591 5.31498 7.83178 5.21402 8.08349 5.21183C8.3352 5.20964 8.5777 5.3064 8.75875 5.48128L12.5988 9.32128C12.7787 9.5013 12.8798 9.74544 12.8798 10C12.8798 10.2546 12.7787 10.4987 12.5988 10.6787L8.75875 14.5187C8.57873 14.6987 8.33459 14.7998 8.08003 14.7998C7.82548 14.7998 7.58134 14.6987 7.40131 14.5187Z" fill="black"/>
</svg>
