<svg width="24" height="24" viewBox="0 0 24 24" fill="none" xmlns="http://www.w3.org/2000/svg">
<path d="M12 3H7C5.93914 3 4.92172 3.42143 4.17157 4.17157C3.42143 4.92172 3 5.93913 3 7V12C2.99973 12.2627 3.05136 12.5228 3.15192 12.7655C3.25249 13.0081 3.40001 13.2285 3.586 13.414L10.586 20.414C10.9611 20.7889 11.4697 20.9996 12 20.9996C12.5303 20.9996 13.0389 20.7889 13.414 20.414L20.414 13.414C20.7889 13.0389 20.9996 12.5303 20.9996 12C20.9996 11.4697 20.7889 10.9611 20.414 10.586L13.414 3.586C13.024 3.195 12.512 3 12 3Z" fill="#222428" stroke="#222428" stroke-width="2" stroke-linecap="round" stroke-linejoin="round"/>
<path fill-rule="evenodd" clip-rule="evenodd" d="M6 7C6 6.44772 6.44772 6 7 6H7.01C7.56228 6 8.01 6.44772 8.01 7C8.01 7.55228 7.56228 8 7.01 8H7C6.44772 8 6 7.55228 6 7Z" fill="white"/>
</svg>
