<svg width="32" height="32" viewBox="0 0 32 32" fill="none" xmlns="http://www.w3.org/2000/svg">
<path d="M17.2681 3.90269C16.8695 2.67469 15.1321 2.67469 14.7321 3.90269L12.7068 10.1347C12.6196 10.4022 12.4499 10.6353 12.2222 10.8006C11.9944 10.9658 11.7202 11.0548 11.4388 11.0547H4.88679C3.59613 11.0547 3.05746 12.708 4.10279 13.468L9.40413 17.3187C9.63185 17.4842 9.80133 17.7176 9.88827 17.9854C9.97522 18.2532 9.97516 18.5416 9.88813 18.8094L7.86413 25.0414C7.46413 26.2694 8.87079 27.292 9.91479 26.532L15.2161 22.6814C15.444 22.5157 15.7184 22.4265 16.0001 22.4265C16.2818 22.4265 16.5563 22.5157 16.7841 22.6814L22.0855 26.532C23.1295 27.292 24.5361 26.2707 24.1361 25.0414L22.1121 18.8094C22.0251 18.5416 22.025 18.2532 22.112 17.9854C22.1989 17.7176 22.3684 17.4842 22.5961 17.3187L27.8975 13.468C28.9415 12.708 28.4055 11.0547 27.1135 11.0547H20.5601C20.279 11.0545 20.0051 10.9654 19.7776 10.8002C19.5501 10.6349 19.3806 10.402 19.2935 10.1347L17.2681 3.90269Z" fill="#DB1951" stroke="#DB1951" stroke-width="2" stroke-linecap="round" stroke-linejoin="round"/>
</svg>
